<svg width="833" height="219" viewBox="0 0 833 219" fill="none" xmlns="http://www.w3.org/2000/svg">
<path d="M13.0023 174V48H77.4423C94.0024 48 106.362 51.06 114.522 57.18C122.682 63.18 126.762 71.1 126.762 80.94C126.762 87.42 125.022 93.12 121.542 98.04C118.182 102.84 113.382 106.68 107.142 109.56C101.022 112.32 93.7024 113.7 85.1823 113.7L88.7823 105.06C97.6623 105.06 105.402 106.44 112.002 109.2C118.602 111.84 123.702 115.74 127.302 120.9C131.022 125.94 132.882 132.12 132.882 139.44C132.882 150.36 128.442 158.88 119.562 165C110.802 171 97.9624 174 81.0423 174H13.0023ZM48.2823 148.26H78.1623C84.2823 148.26 88.9023 147.24 92.0223 145.2C95.2623 143.04 96.8823 139.8 96.8823 135.48C96.8823 131.16 95.2623 127.98 92.0223 125.94C88.9023 123.78 84.2823 122.7 78.1623 122.7H45.7623V98.04H72.7623C78.7623 98.04 83.2623 97.02 86.2623 94.98C89.2623 92.94 90.7623 89.88 90.7623 85.8C90.7623 81.72 89.2623 78.72 86.2623 76.8C83.2623 74.76 78.7623 73.74 72.7623 73.74H48.2823V148.26ZM218.482 176.52C199.882 176.52 185.362 171.42 174.922 161.22C164.482 151.02 159.262 136.56 159.262 117.84V48H194.902V116.76C194.902 127.56 197.002 135.3 201.202 139.98C205.522 144.66 211.402 147 218.842 147C226.282 147 232.102 144.66 236.302 139.98C240.502 135.3 242.602 127.56 242.602 116.76V48H277.702V117.84C277.702 136.56 272.482 151.02 262.042 161.22C251.602 171.42 237.082 176.52 218.482 176.52ZM342.706 146.1L340.726 106.14L394.906 48H434.146L380.146 106.5L360.346 127.2L342.706 146.1ZM310.846 174V48H346.126V174H310.846ZM395.446 174L354.406 121.98L377.626 97.14L436.846 174H395.446Z" fill="#283D3B"/>
<path d="M539.977 187.762C528.009 187.762 516.863 185.741 506.541 181.7C496.368 177.658 487.541 172.045 480.061 164.86C472.581 157.526 466.746 148.994 462.558 139.264C458.369 129.535 456.274 118.907 456.274 107.381C456.274 95.8553 458.369 85.2276 462.558 75.4981C466.746 65.7685 472.581 57.3113 480.061 50.1264C487.541 42.7918 496.368 37.1038 506.541 33.0622C516.714 29.0207 527.859 27 539.977 27C551.945 27 562.941 29.0207 572.964 33.0622C583.137 36.9541 591.964 42.5673 599.444 49.9019C607.073 57.0868 612.908 65.544 616.947 75.2735C621.136 85.0031 623.23 95.7056 623.23 107.381C623.23 119.057 621.136 129.759 616.947 139.489C612.908 149.218 607.073 157.75 599.444 165.085C591.964 172.27 583.137 177.883 572.964 181.924C562.941 185.816 551.945 187.762 539.977 187.762ZM539.977 167.779C548.654 167.779 556.657 166.282 563.988 163.289C571.468 160.295 577.901 156.104 583.287 150.715C588.822 145.177 593.086 138.74 596.078 131.406C599.219 124.071 600.79 116.063 600.79 107.381C600.79 98.6993 599.219 90.6911 596.078 83.3566C593.086 76.022 588.822 69.6603 583.287 64.2717C577.901 58.7333 571.468 54.4673 563.988 51.4736C556.657 48.4799 548.654 46.983 539.977 46.983C531.15 46.983 522.997 48.4799 515.517 51.4736C508.186 54.4673 501.753 58.7333 496.218 64.2717C490.683 69.6603 486.344 76.022 483.203 83.3566C480.211 90.6911 478.715 98.6993 478.715 107.381C478.715 116.063 480.211 124.071 483.203 131.406C486.344 138.74 490.683 145.177 496.218 150.715C501.753 156.104 508.186 160.295 515.517 163.289C522.997 166.282 531.15 167.779 539.977 167.779Z" fill="#283D3B"/>
<path d="M728.441 187.762C716.472 187.762 705.327 185.741 695.004 181.7C684.831 177.658 676.005 172.045 668.525 164.86C661.045 157.526 655.21 148.994 651.021 139.264C646.832 129.535 644.738 118.907 644.738 107.381C644.738 95.8553 646.832 85.2276 651.021 75.4981C655.21 65.7685 661.045 57.3113 668.525 50.1264C676.005 42.7918 684.831 37.1038 695.004 33.0622C705.177 29.0207 716.323 27 728.441 27C740.409 27 751.404 29.0207 761.428 33.0622C771.601 36.9541 780.427 42.5673 787.907 49.9019C795.537 57.0868 801.372 65.544 805.411 75.2735C809.6 85.0031 811.694 95.7056 811.694 107.381C811.694 119.057 809.6 129.759 805.411 139.489C801.372 149.218 795.537 157.75 787.907 165.085C780.427 172.27 771.601 177.883 761.428 181.924C751.404 185.816 740.409 187.762 728.441 187.762ZM728.441 167.779C737.117 167.779 745.121 166.282 752.452 163.289C759.932 160.295 766.365 156.104 771.75 150.715C777.286 145.177 781.549 138.74 784.541 131.406C787.683 124.071 789.254 116.063 789.254 107.381C789.254 98.6993 787.683 90.6911 784.541 83.3566C781.549 76.022 777.286 69.6603 771.75 64.2717C766.365 58.7333 759.932 54.4673 752.452 51.4736C745.121 48.4799 737.117 46.983 728.441 46.983C719.614 46.983 711.461 48.4799 703.981 51.4736C696.65 54.4673 690.217 58.7333 684.682 64.2717C679.147 69.6603 674.808 76.022 671.666 83.3566C668.674 90.6911 667.178 98.6993 667.178 107.381C667.178 116.063 668.674 124.071 671.666 131.406C674.808 138.74 679.147 145.177 684.682 150.715C690.217 156.104 696.65 160.295 703.981 163.289C711.461 166.282 719.614 167.779 728.441 167.779Z" fill="#283D3B"/>
<path d="M612.194 108.35H656.743" stroke="#283D3B" stroke-width="24"/>
<path d="M789.42 107.381H833" stroke="#283D3B" stroke-width="24"/>
<path d="M434 107.381H478.549" stroke="#283D3B" stroke-width="24"/>
<path fill-rule="evenodd" clip-rule="evenodd" d="M785.546 112.708C785.546 137.578 765.384 157.74 740.513 157.74C715.642 157.74 695.481 137.578 695.481 112.708C695.481 87.8366 715.642 67.6748 740.513 67.6748C765.384 67.6748 785.546 87.8366 785.546 112.708ZM779.035 115.963C779.035 128.249 769.076 138.208 756.79 138.208C744.505 138.208 734.545 128.249 734.545 115.963C734.545 103.677 744.505 93.7178 756.79 93.7178C769.076 93.7178 779.035 103.677 779.035 115.963ZM727.924 143.214C732.47 143.214 736.155 139.528 736.155 134.982C736.155 130.436 732.47 126.75 727.924 126.75C723.377 126.75 719.692 130.436 719.692 134.982C719.692 139.528 723.377 143.214 727.924 143.214Z" fill="#772E25"/>
<path fill-rule="evenodd" clip-rule="evenodd" d="M597.667 112.708C597.667 137.578 577.506 157.74 552.635 157.74C527.764 157.74 507.602 137.578 507.602 112.708C507.602 87.8366 527.764 67.6748 552.635 67.6748C577.506 67.6748 597.667 87.8366 597.667 112.708ZM591.157 115.963C591.157 128.249 581.197 138.208 568.912 138.208C556.626 138.208 546.667 128.249 546.667 115.963C546.667 103.677 556.626 93.7178 568.912 93.7178C581.197 93.7178 591.157 103.677 591.157 115.963ZM540.045 143.214C544.591 143.214 548.277 139.528 548.277 134.982C548.277 130.436 544.591 126.75 540.045 126.75C535.499 126.75 531.813 130.436 531.813 134.982C531.813 139.528 535.499 143.214 540.045 143.214Z" fill="#772E25"/>
</svg>
